<svg width="20" height="20" viewBox="0 0 20 20" fill="none" xmlns="http://www.w3.org/2000/svg">
<path fill-rule="evenodd" clip-rule="evenodd" d="M10 -6.10352e-05C4.48 -6.10352e-05 0 4.47996 0 9.99999C0 15.52 4.48 20 10 20C15.52 20 20 15.52 20 9.99999C20 4.47996 15.52 -6.10352e-05 10 -6.10352e-05ZM10 2.99999C11.66 2.99999 13 4.34001 13 6.00003C13 7.66005 11.66 9.00007 10 9.00007C8.34 9.00007 7 7.66005 7 6.00003C7 4.34001 8.34 2.99999 10 2.99999ZM4 13.98C5.29 15.92 7.5 17.2 10 17.2C12.5 17.2 14.71 15.92 16 13.98C15.97 11.99 11.99 10.9 10 10.9C8 10.9 4.03 11.99 4 13.98Z" fill="#FDB713"/>
</svg>
