<svg width="18" height="18" viewBox="0 0 18 18" fill="none" xmlns="http://www.w3.org/2000/svg">
<path d="M16.2218 12.2679L13.6818 11.9779C13.0718 11.9079 12.4718 12.1179 12.0418 12.5479L10.2018 14.3879C7.37179 12.9479 5.05179 10.6379 3.6118 7.79796L5.46179 5.94797C5.89179 5.51797 6.10179 4.91798 6.03179 4.30798L5.74179 1.788C5.62179 0.778001 4.77179 0.0180054 3.7518 0.0180054H2.0218C0.8918 0.0180054 -0.048199 0.958 0.0218009 2.08799C0.5518 10.6279 7.38179 17.4479 15.9118 17.9779C17.0418 18.0479 17.9818 17.1079 17.9818 15.9779V14.2479C17.9918 13.2379 17.2318 12.3879 16.2218 12.2679Z" fill="#FDB713"/>
</svg>
