<svg width="41" height="33" viewBox="0 0 41 33" fill="none" xmlns="http://www.w3.org/2000/svg">
<path d="M4.1394 32.5179L37.2648 32.5358C38.3667 32.5358 39.2632 31.6397 39.2632 30.538V19.2954L39.2802 19.2669C39.6098 18.7142 40.2387 17.659 40.2599 17.6216C40.6648 16.8308 40.8798 15.9365 40.8798 15.0388C40.8797 13.5657 40.3175 12.1694 39.2966 11.1071L39.2631 11.0722V4.99899C39.2631 3.89872 38.3675 3.00257 37.2665 3.00129L10.5244 2.98792L10.4886 2.93587C10.2822 2.63566 10.0467 2.35434 9.78849 2.0997C8.71689 1.04283 7.30559 0.463867 5.80614 0.463867C5.77747 0.463867 5.74872 0.464108 5.71989 0.464508C2.65051 0.507109 0.13847 3.03941 0.120212 6.10967C0.114927 7.01952 0.329936 7.92576 0.742017 8.73046C0.764278 8.76914 1.65715 10.2669 2.12592 11.0529L2.1429 11.0813V30.5211C2.1429 31.6221 3.03849 32.5179 4.1394 32.5179ZM4.1398 31.0516C3.84727 31.0516 3.60936 30.8136 3.60936 30.5211V27.188L5.94075 24.8566L12.1401 31.056L4.1398 31.0516ZM19.1189 25.1694L13.8748 19.9253L17.9942 15.8059L23.2384 21.05L19.1189 25.1694ZM24.1546 21.9661L27.1926 25.0041L23.0732 29.1235L20.0352 26.0856L24.1546 21.9661ZM15.1772 23.06L10.5769 27.6602L6.857 23.9403L11.4572 19.34L15.1772 23.06ZM13.9735 31.0569L11.493 28.5763L16.0933 23.9762L23.1789 31.0618L13.9735 31.0569ZM25.0123 31.0629L23.9893 30.0397L28.1087 25.9203L33.2558 31.0674L25.0123 31.0629ZM39.4134 15.0389C39.4134 15.7056 39.2626 16.3427 38.9649 16.9326L38.9608 16.94L35.2005 23.245L31.4344 16.9325C31.1328 16.3348 30.9821 15.6891 30.986 15.0132C30.9995 12.7357 32.8628 10.8572 35.1397 10.8256C36.2754 10.8098 37.3495 11.2409 38.1583 12.0386C38.9677 12.8368 39.4134 13.9024 39.4134 15.0389ZM37.2654 4.46776C37.5584 4.46808 37.7967 4.70639 37.7967 4.99907V9.98079L37.6252 9.89951C36.8404 9.52795 35.9971 9.34578 35.1194 9.35955C32.0499 9.40215 29.5379 11.9345 29.5197 15.0046C29.5144 15.9146 29.7294 16.8208 30.1415 17.6254C30.1817 17.6945 33.8016 23.7623 33.8381 23.8236C34.127 24.3078 34.6361 24.5968 35.1998 24.5968C35.7636 24.5968 36.2725 24.3078 36.5614 23.8237L37.7968 21.7531L37.7971 30.5383C37.7967 30.8311 37.5582 31.0695 37.2651 31.0695L35.0892 31.0683L35.0541 31.0332L29.025 25.0041L30.8989 23.1301C31.0213 23.0078 31.0887 22.8451 31.0887 22.672C31.0887 22.499 31.0213 22.3362 30.8989 22.2138C30.6465 21.9616 30.2355 21.9614 29.9828 22.2138L28.1087 24.0878L22.0792 18.0582L25.1602 14.9772L26.7536 16.5706C26.8921 16.7091 27.0763 16.7853 27.2721 16.7853C27.4679 16.7853 27.6521 16.7091 27.7905 16.5706C28.0763 16.2848 28.0763 15.8196 27.7905 15.5336L26.1972 13.9402L35.6704 4.46696L37.2654 4.46776ZM33.8388 4.466L29.4292 8.87564L25.015 4.46151L33.8388 4.466ZM28.5128 9.79189L21.1628 17.1419L16.3976 12.3767L23.7477 5.02678L28.5128 9.79189ZM10.8598 8.72765C11.2657 7.93408 11.4802 7.04074 11.4802 6.14403C11.4802 5.62496 11.4093 5.10782 11.2695 4.60717L11.2269 4.4547L22.4818 4.46039L15.4815 11.4606L12.9938 8.97285C12.7411 8.72037 12.3301 8.72037 12.0775 8.97285C11.8249 9.22542 11.8249 9.63646 12.0775 9.8891L17.0781 14.8897L12.9586 19.0092L9.67486 15.7255C9.42237 15.4731 9.01125 15.4729 8.75861 15.7255C8.50604 15.9781 8.50604 16.3892 8.75861 16.6417L10.5408 18.424L3.60912 25.3556V13.5388L4.43841 14.9287C4.72725 15.4129 5.2363 15.7019 5.80005 15.7019C6.36372 15.7019 6.87277 15.4129 7.1617 14.9288L7.16322 14.9297C7.17243 14.9109 7.18412 14.8912 7.19653 14.8705L7.65257 14.1059C8.59549 12.5252 10.7939 8.83968 10.8598 8.72765ZM2.03487 8.0377C1.73338 7.43992 1.58251 6.79418 1.58652 6.1184C1.60005 3.84091 3.46338 1.96228 5.74007 1.93073C6.87918 1.9192 7.95142 2.34754 8.75885 3.14383C9.03295 3.41425 9.26918 3.72103 9.46081 4.05568C9.46994 4.07313 9.47747 4.08539 9.48499 4.0978C9.83181 4.72144 10.0138 5.42765 10.0138 6.14411C10.0138 6.81083 9.86296 7.44801 9.56539 8.03795L9.56131 8.04531L5.80101 14.3503L2.03487 8.0377Z" fill="#FDB713"/>
</svg>
