<svg width="18" height="19" viewBox="0 0 18 19" fill="none" xmlns="http://www.w3.org/2000/svg">
<path fill-rule="evenodd" clip-rule="evenodd" d="M12 3.41249V8.58249H16C17.1 8.58249 18 9.48248 18 10.5825V16.5825C18 17.6825 17.1 18.5825 16 18.5825H2C0.9 18.5825 0 17.6825 0 16.5825V6.58249C0 5.48249 0.9 4.58249 2 4.58249H6V3.41249C6 2.88249 6.21 2.37249 6.59 1.99249L8.29 0.292486C8.47683 0.105233 8.73048 0 8.995 0C9.25952 0 9.51317 0.105233 9.7 0.292486L11.41 2.00249C11.79 2.37249 12 2.88249 12 3.41249ZM2 16.5825H4V14.5825H2V16.5825ZM4 12.5825H2V10.5825H4V12.5825ZM2 8.58249H4V6.58249H2V8.58249ZM10 16.5825H8V14.5825H10V16.5825ZM8 12.5825H10V10.5825H8V12.5825ZM10 8.58249H8V6.58249H10V8.58249ZM8 4.58249H10V2.58249H8V4.58249ZM16 16.5825H14V14.5825H16V16.5825ZM14 12.5825H16V10.5825H14V12.5825Z" fill="#FDB713"/>
</svg>
