<svg width="33" height="33" viewBox="0 0 33 33" fill="none" xmlns="http://www.w3.org/2000/svg">
<path d="M31.0664 2.57812H28.8586V2.19141C28.8586 0.983039 27.8756 0 26.6672 0C25.4589 0 24.4758 0.983039 24.4758 2.19141V2.57812H18.6832V2.19141C18.6832 0.983039 17.7002 0 16.4918 0C15.2834 0 14.3004 0.983039 14.3004 2.19141V2.57812H8.50781V2.19141C8.50781 0.983039 7.52477 0 6.31641 0C5.10804 0 4.125 0.983039 4.125 2.19141V2.57812H1.93359C0.86741 2.57812 0 3.44554 0 4.51172V31.0664C0 32.1326 0.86741 33 1.93359 33H10.4844C10.8403 33 11.1289 32.7114 11.1289 32.3555C11.1289 31.9995 10.8403 31.7109 10.4844 31.7109H1.93359C1.5782 31.7109 1.28906 31.4218 1.28906 31.0664V10.3125H27.1187C27.4746 10.3125 27.7632 10.0239 27.7632 9.66797C27.7632 9.31199 27.4746 9.02344 27.1187 9.02344H1.28906V4.51172C1.28906 4.15632 1.5782 3.86719 1.93359 3.86719H4.125V4.35059C4.125 5.55895 5.10804 6.54199 6.31641 6.54199C7.52477 6.54199 8.50781 5.55895 8.50781 4.35059V3.86719H14.3004V4.35059C14.3004 5.55895 15.2834 6.54199 16.4918 6.54199C17.7002 6.54199 18.6832 5.55895 18.6832 4.35059V3.86719H24.4758V4.35059C24.4758 5.55895 25.4589 6.54199 26.6672 6.54199C27.8756 6.54199 28.8586 5.55895 28.8586 4.35059V3.86719H31.0664C31.4218 3.86719 31.7109 4.15632 31.7109 4.51172V31.0664C31.7109 31.4218 31.4218 31.7109 31.0664 31.7109H15.6406C15.2847 31.7109 14.9961 31.9995 14.9961 32.3555C14.9961 32.7114 15.2847 33 15.6406 33H31.0664C32.1326 33 33 32.1326 33 31.0664V4.51172C33 3.44554 32.1326 2.57812 31.0664 2.57812ZM7.21875 4.35059C7.21875 4.84816 6.81398 5.25293 6.31641 5.25293C5.81883 5.25293 5.41406 4.84816 5.41406 4.35059V2.19141C5.41406 1.69383 5.81883 1.28906 6.31641 1.28906C6.81398 1.28906 7.21875 1.69383 7.21875 2.19141V4.35059ZM17.3942 4.35059C17.3942 4.84816 16.9894 5.25293 16.4918 5.25293C15.9942 5.25293 15.5895 4.84816 15.5895 4.35059V2.19141C15.5895 1.69383 15.9942 1.28906 16.4918 1.28906C16.9894 1.28906 17.3942 1.69383 17.3942 2.19141V4.35059ZM27.5696 4.35059C27.5696 4.84816 27.1648 5.25293 26.6672 5.25293C26.1696 5.25293 25.7649 4.84816 25.7649 4.35059V2.19141C25.7649 1.69383 26.1696 1.28906 26.6672 1.28906C27.1648 1.28906 27.5696 1.69383 27.5696 2.19141V4.35059Z" fill="#FDB713"/>
</svg>
