<svg width="50" height="50" viewBox="0 0 50 50" fill="none" xmlns="http://www.w3.org/2000/svg">
<path d="M0.697272 10.3682C0.43684 13.5343 1.37512 16.5124 2.10379 18.4779C3.90413 23.3363 6.60192 27.8353 10.5919 32.632C15.4575 38.4423 21.3104 43.0248 27.9846 46.2507C30.5335 47.4594 33.9409 48.8786 37.6686 49.1173C37.8891 49.1281 38.1278 49.1381 38.3447 49.1381C40.782 49.1381 42.8283 48.2679 44.4299 46.552L44.4989 46.4703C45.0533 45.7988 45.6749 45.1981 46.3328 44.5611L46.4925 44.4068C46.9707 43.9504 47.458 43.4749 47.9353 42.9758C48.9598 41.9095 49.5006 40.68 49.5006 39.415C49.5006 38.1437 48.9516 36.9269 47.9117 35.8969L41.7566 29.7201C39.7557 27.6366 36.8765 27.6312 34.7912 29.7146L31.0145 33.4795L30.7177 33.3198C30.5254 33.2164 30.333 33.1175 30.1442 33.0204L29.8611 32.8752C29.4346 32.6619 29.0508 32.4696 28.7223 32.2645C25.3621 30.1302 22.3122 27.3526 19.3957 23.7691C17.9693 21.9652 17.0192 20.4652 16.3114 18.8999L16.1771 18.5995L16.4194 18.3772C17.2379 17.6286 18.0092 16.8473 18.7533 16.0905L19.9429 14.8863C21.0101 13.8192 21.5745 12.5905 21.5745 11.3328C21.5745 10.0751 21.0101 8.84648 19.9429 7.77934L16.8867 4.72312C16.5101 4.34563 16.1617 3.99718 15.835 3.64873C15.188 2.97995 14.4838 2.26308 13.7543 1.58886C12.7416 0.587063 11.5547 0.0634766 10.3115 0.0634766C9.06195 0.0634766 7.85416 0.588877 6.81879 1.58251L2.99761 5.43727C1.63919 6.79841 0.866054 8.45538 0.697272 10.3682ZM8.3097 3.11062C9.61004 1.88832 11.0855 1.90102 12.2879 3.09883C12.9675 3.73675 13.5973 4.37376 14.3423 5.14235L18.4566 9.27932C19.8204 10.6441 19.8204 12.027 18.4566 13.3918L18.148 13.7021C17.9284 13.9244 17.7106 14.145 17.4865 14.3609C16.6272 15.242 15.6826 16.1912 14.6653 17.1032C13.874 17.8963 13.9566 18.5895 14.1563 19.2266C14.9457 21.1539 16.0419 22.9407 17.7297 25.0831C20.8023 28.8653 24.0182 31.7926 27.5699 34.0376C28.0091 34.318 28.4655 34.5458 28.9074 34.7663C29.323 34.9741 29.7169 35.171 30.0517 35.3797L29.9391 35.8388L30.1533 35.4396C30.4664 35.5957 30.754 35.6692 31.0553 35.6692C31.7939 35.6692 32.2595 35.2055 32.4355 35.0312L36.2658 31.201C36.7095 30.7572 37.4191 30.2282 38.2775 30.2282C39.2049 30.2282 39.8955 30.8335 40.2249 31.1937L46.4026 37.3697C47.722 38.6764 47.7293 40.1473 46.4217 41.5076C46.0642 41.8923 45.6994 42.2471 45.3146 42.6219L45.0433 42.8859C44.3419 43.5556 43.6005 44.2834 42.9109 45.0946C41.6686 46.424 40.2258 47.0356 38.3547 47.0356C38.1777 47.0356 37.9871 47.0356 37.8084 47.0229C34.4019 46.8051 31.264 45.4857 28.9101 44.3596C22.5073 41.2598 16.8976 36.8661 12.2334 31.299C8.38954 26.6657 5.80338 22.3572 4.09469 17.7411C3.033 14.8999 2.63827 12.6776 2.81431 10.5379C2.935 9.11598 3.48309 7.93633 4.49033 6.92908L8.3097 3.11062Z" fill="#FDB713"/>
</svg>
