<svg width="306" height="304" viewBox="0 0 306 304" fill="none" xmlns="http://www.w3.org/2000/svg">
<path d="M211.553 161.034C208.549 158.03 204.556 156.376 200.309 156.376C199.279 156.376 198.264 156.477 197.275 156.667L127.318 86.7115L140.874 73.1554C143.046 70.9837 143.046 67.4632 140.874 65.2915L137.443 61.8608L188.91 10.3947C190.451 8.85316 190.949 6.55316 190.185 4.51118C189.42 2.46995 187.533 1.0634 185.357 0.914366C155.825 -1.10759 126.878 9.51157 105.662 30.0781L102.215 26.6318C101.173 25.5894 99.758 25.0029 98.2833 25.0029C96.8085 25.0029 95.3938 25.5886 94.3513 26.6318L39.1238 81.8594C36.9521 84.0311 36.9521 87.5515 39.1238 89.7233L44.4438 95.0432L34.6965 104.79L29.3766 99.4705C27.2048 97.2987 23.6837 97.2987 21.5127 99.4705L1.62898 119.354C0.585752 120.397 0 121.812 0 123.287C0 124.762 0.585752 126.176 1.62898 127.219L40.2886 165.878C41.3741 166.964 42.7977 167.507 44.2206 167.507C45.6434 167.507 47.067 166.964 48.1525 165.878L68.0355 145.995C69.0787 144.952 69.6645 143.538 69.6645 142.063C69.6645 140.588 69.0787 139.173 68.0355 138.131L62.7133 132.809L72.4605 123.061L77.7827 128.384C78.8252 129.426 80.2399 130.013 81.7147 130.013C83.1894 130.013 84.6041 129.427 85.6466 128.384L99.2027 114.828L169.164 184.789C168.198 189.8 169.652 195.19 173.524 199.062L256.49 282.028C259.494 285.032 263.488 286.686 267.735 286.686C271.983 286.686 275.976 285.032 278.98 282.028L294.519 266.488C300.718 260.288 300.718 250.2 294.519 243.999L211.553 161.034ZM171.543 12.0318L129.579 53.9968L113.523 37.9406C129.319 22.6858 149.881 13.5874 171.543 12.0318ZM44.2206 154.081L13.4256 123.286L25.4446 111.267L56.2396 142.062L44.2206 154.081ZM54.8494 124.944L42.5612 112.656L52.3084 102.909L64.5966 115.197L54.8494 124.944ZM81.7147 116.587L50.9197 85.7921L98.2825 38.4292L129.078 69.2242L81.7147 116.587ZM119.454 94.5761L187.488 162.609L175.101 174.996L107.067 106.963L119.454 94.5761ZM286.654 258.624L271.114 274.163C270.211 275.066 269.012 275.563 267.734 275.563C266.457 275.563 265.257 275.066 264.354 274.163L181.39 191.198C179.527 189.335 179.526 186.305 181.386 184.441L196.933 168.894C197.835 167.994 199.033 167.498 200.309 167.498C201.585 167.498 202.786 167.995 203.689 168.898L286.655 251.862C288.518 253.727 288.518 256.76 286.654 258.624Z" fill="url(#paint0_linear)"/>
<path d="M184.256 125.928C182.085 128.1 182.085 131.621 184.256 133.793C186.429 135.965 189.949 135.965 192.121 133.793L203.999 121.915C218.095 107.819 224.942 88.6506 222.784 69.326C221.491 57.7467 225.957 46.2281 234.731 38.514C237.249 36.3 240.064 34.4686 243.089 33.0613L238.519 47.7095C236.626 53.7747 237.209 60.2135 240.161 65.8404C243.111 71.4673 248.077 75.6076 254.142 77.4998C266.661 81.4066 280.025 74.3968 283.933 61.8766L288.653 46.7434C291.958 52.1227 293.772 58.305 293.874 64.7935C294.028 74.5296 290.321 83.6829 283.438 90.5666C279.394 94.6097 274.604 97.5415 269.201 99.2809C259.136 102.521 249.966 108.082 242.685 115.364L213.626 144.422C211.454 146.594 211.454 150.115 213.626 152.286C214.712 153.373 216.136 153.915 217.559 153.915C218.982 153.915 220.405 153.373 221.492 152.286L250.55 123.228C256.589 117.189 264.217 112.569 272.609 109.867C279.609 107.614 286.073 103.659 291.303 98.4305C300.335 89.3988 305.197 77.3901 304.995 64.617C304.794 51.8439 299.543 39.985 290.212 31.2232C288.815 29.9123 286.842 29.4118 284.991 29.8997C283.139 30.3868 281.668 31.7934 281.097 33.6218L273.316 58.5637C271.236 65.2295 264.119 68.9612 257.454 66.8822C254.225 65.8745 251.581 63.6702 250.011 60.6747C248.44 57.6784 248.129 54.2507 249.137 51.0216L256.829 26.3652C257.402 24.5249 256.983 22.5185 255.719 21.063C254.455 19.6068 252.523 18.9105 250.626 19.2205C241.957 20.633 233.922 24.4166 227.388 30.1607C215.888 40.2712 210.035 55.374 211.73 70.5598C213.511 86.5063 207.826 102.357 196.134 114.05L184.256 125.928Z" fill="url(#paint1_linear)"/>
<path d="M157.035 201.008C142.94 215.103 136.093 234.271 138.251 253.597C139.544 265.176 135.077 276.694 126.303 284.409C123.785 286.623 120.97 288.454 117.946 289.862L122.516 275.213C124.408 269.148 123.825 262.71 120.874 257.083C117.923 251.456 112.957 247.315 106.892 245.423C100.826 243.531 94.3877 244.114 88.7615 247.065C83.1345 250.016 78.9942 254.981 77.102 261.046L72.3812 276.179C69.075 270.799 67.2621 264.618 67.1598 258.128C67.0063 248.392 70.7129 239.239 77.5966 232.355C81.6398 228.312 86.4296 225.38 91.8333 223.641C101.899 220.402 111.067 214.84 118.349 207.558L147.873 178.033C150.045 175.862 150.045 172.341 147.873 170.17C145.702 167.998 142.181 167.998 140.01 170.17L110.485 199.694C104.446 205.734 96.8182 210.354 88.4263 213.055C81.4262 215.308 74.9614 219.263 69.7334 224.492C60.7017 233.523 55.8392 245.531 56.0402 258.305C56.2411 271.078 61.4921 282.937 70.8241 291.699C72.2203 293.01 74.1948 293.51 76.0455 293.023C77.8976 292.535 79.3687 291.129 79.9389 289.3L87.7197 264.359C88.7266 261.129 90.9317 258.486 93.9272 256.915C96.9227 255.344 100.351 255.033 103.581 256.041C106.81 257.048 109.454 259.253 111.025 262.248C112.596 265.244 112.907 268.672 111.899 271.901L104.208 296.558C103.634 298.398 104.053 300.405 105.317 301.86C106.382 303.087 107.919 303.775 109.516 303.775C109.813 303.775 110.112 303.751 110.411 303.703C119.078 302.29 127.114 298.506 133.648 292.762C145.148 282.651 151.001 267.549 149.305 252.364C147.525 236.417 153.21 220.566 164.901 208.874C167.073 206.702 167.073 203.182 164.901 201.01C162.728 198.837 159.207 198.837 157.035 201.008Z" fill="url(#paint2_linear)"/>
<defs>
<linearGradient id="paint0_linear" x1="149.584" y1="0.67041" x2="149.584" y2="286.686" gradientUnits="userSpaceOnUse">
<stop stop-color="white" stop-opacity="0.1"/>
<stop offset="1" stop-color="white" stop-opacity="0"/>
</linearGradient>
<linearGradient id="paint1_linear" x1="243.814" y1="19.1479" x2="243.814" y2="153.915" gradientUnits="userSpaceOnUse">
<stop stop-color="white" stop-opacity="0.1"/>
<stop offset="1" stop-color="white" stop-opacity="0"/>
</linearGradient>
<linearGradient id="paint2_linear" x1="111.282" y1="168.541" x2="111.282" y2="303.775" gradientUnits="userSpaceOnUse">
<stop stop-color="white" stop-opacity="0.1"/>
<stop offset="1" stop-color="white" stop-opacity="0"/>
</linearGradient>
</defs>
</svg>
