<svg width="14" height="19" viewBox="0 0 14 19" fill="none" xmlns="http://www.w3.org/2000/svg">
<path fill-rule="evenodd" clip-rule="evenodd" d="M0 6.8581C0 3.21318 3.13 0.265213 7 0.265213C10.87 0.265213 14 3.21318 14 6.8581C14 10.7856 9.58 16.2012 7.77 18.2638C7.37 18.7159 6.64 18.7159 6.24 18.2638C4.42 16.2012 0 10.7856 0 6.8581ZM4.5 7.11969C4.5 8.41943 5.62 9.4743 7 9.4743C8.38 9.4743 9.5 8.41943 9.5 7.11969C9.5 5.81994 8.38 4.76507 7 4.76507C5.62 4.76507 4.5 5.81994 4.5 7.11969Z" fill="#FDB713"/>
</svg>
