<svg width="14" height="20" viewBox="0 0 14 20" fill="none" xmlns="http://www.w3.org/2000/svg">
<path fill-rule="evenodd" clip-rule="evenodd" d="M0 7.26514C0 3.39514 3.13 0.265137 7 0.265137C10.87 0.265137 14 3.39514 14 7.26514C14 11.4351 9.58 17.1851 7.77 19.3751C7.37 19.8551 6.64 19.8551 6.24 19.3751C4.42 17.1851 0 11.4351 0 7.26514ZM4.5 7.26514C4.5 8.64514 5.62 9.76514 7 9.76514C8.38 9.76514 9.5 8.64514 9.5 7.26514C9.5 5.88514 8.38 4.76514 7 4.76514C5.62 4.76514 4.5 5.88514 4.5 7.26514Z" fill="#FDB713"/>
</svg>
