<svg width="48" height="38" viewBox="0 0 48 38" fill="none" xmlns="http://www.w3.org/2000/svg">
<path d="M30.552 0.00012436L48.001 0.000125885L48.001 12.2341C48.001 17.1841 47.557 21.0901 46.666 23.9501C45.776 26.8111 44.131 29.3761 41.729 31.6491C39.329 33.9211 36.264 35.7061 32.539 37.0051L29.124 29.9451C32.602 28.8081 35.096 27.2261 36.607 25.1981C38.119 23.1681 38.915 20.4711 38.998 17.1031L30.553 17.1031L30.552 0.00012436ZM1.42798 0.000121813L18.877 0.000123339L18.877 12.2341C18.877 17.2251 18.432 21.1401 17.542 23.9811C16.652 26.8211 14.996 29.3771 12.574 31.6501C10.153 33.9211 7.09998 35.7061 3.41498 37.0051L-2.2271e-05 29.9451C3.47698 28.8081 5.97198 27.2261 7.48198 25.1981C8.99398 23.1681 9.79098 20.4711 9.87298 17.1031L1.42798 17.1031L1.42798 0.000121813Z" fill="#FDB713"/>
</svg>
