<svg width="22" height="22" viewBox="0 0 22 22" fill="none" xmlns="http://www.w3.org/2000/svg">
<path d="M10.9998 15.7922C13.6432 15.7922 15.775 13.6434 15.775 11.017C15.775 8.39069 13.6262 6.24185 10.9998 6.24185C8.37345 6.24185 6.22461 8.39069 6.22461 11.017C6.22461 13.6434 8.35639 15.7922 10.9998 15.7922ZM10.9998 7.62325C12.8758 7.62325 14.3936 9.14108 14.3936 11.017C14.3936 12.893 12.8758 14.4108 10.9998 14.4108C9.12383 14.4108 7.606 12.893 7.606 11.017C7.606 9.14108 9.12383 7.62325 10.9998 7.62325Z" fill="#FDB713"/>
<path d="M11.6992 4.0248V1.8248C11.6992 1.43256 11.3923 1.12558 11 1.12558C10.6078 1.12558 10.3008 1.43256 10.3008 1.8248V4.0248C10.3008 4.41705 10.6078 4.72403 11 4.72403C11.3923 4.72403 11.6992 4.41705 11.6992 4.0248Z" fill="#FDB713"/>
<path d="M10.3008 18.0093V20.2093C10.3008 20.6016 10.6078 20.9085 11 20.9085C11.3923 20.9085 11.6992 20.6016 11.6992 20.2093V18.0093C11.6992 17.6171 11.3923 17.3101 11 17.3101C10.6078 17.3101 10.3008 17.6171 10.3008 18.0093Z" fill="#FDB713"/>
<path d="M16.4404 6.5659L17.9923 5.01396C18.2652 4.74109 18.2652 4.29768 17.9923 4.02481C17.7194 3.75194 17.276 3.75194 17.0032 4.02481L15.4512 5.57675C15.1784 5.84962 15.1784 6.29303 15.4512 6.5659C15.5877 6.70233 15.7582 6.77055 15.9458 6.77055C16.1334 6.77055 16.3039 6.70233 16.4404 6.5659Z" fill="#FDB713"/>
<path d="M4.00787 18.0093C4.14431 18.1458 4.31485 18.214 4.50245 18.214C4.67299 18.214 4.86059 18.1458 4.99702 18.0093L6.54896 16.4574C6.82183 16.1845 6.82183 15.7411 6.54896 15.4682C6.27609 15.1954 5.83268 15.1954 5.55981 15.4682L4.00787 17.0202C3.73501 17.293 3.73501 17.7365 4.00787 18.0093Z" fill="#FDB713"/>
<path d="M20.8914 11.0171C20.8914 10.6248 20.5844 10.3178 20.1922 10.3178H17.9922C17.5999 10.3178 17.293 10.6248 17.293 11.0171C17.293 11.4093 17.5999 11.7163 17.9922 11.7163H20.1922C20.5674 11.7163 20.8914 11.4093 20.8914 11.0171Z" fill="#FDB713"/>
<path d="M1.80762 11.7163H4.00762C4.39987 11.7163 4.70685 11.4093 4.70685 11.0171C4.70685 10.6248 4.39987 10.3178 4.00762 10.3178H1.80762C1.41538 10.3178 1.1084 10.6248 1.1084 11.0171C1.1084 11.4093 1.43243 11.7163 1.80762 11.7163Z" fill="#FDB713"/>
<path d="M17.4977 18.214C17.6683 18.214 17.8559 18.1458 17.9923 18.0093C18.2652 17.7365 18.2652 17.293 17.9923 17.0202L16.4404 15.4682C16.1675 15.1954 15.7241 15.1954 15.4512 15.4682C15.1784 15.7411 15.1784 16.1845 15.4512 16.4574L17.0032 18.0093C17.1396 18.1458 17.3272 18.214 17.4977 18.214Z" fill="#FDB713"/>
<path d="M6.54896 6.5659C6.82183 6.29303 6.82183 5.84962 6.54896 5.57675L4.99702 4.02481C4.72415 3.75194 4.28074 3.75194 4.00787 4.02481C3.73501 4.29768 3.73501 4.74109 4.00787 5.01396L5.55981 6.5659C5.69624 6.70233 5.86679 6.77055 6.05438 6.77055C6.24198 6.77055 6.41252 6.70233 6.54896 6.5659Z" fill="#FDB713"/>
</svg>
