<svg width="16" height="16" viewBox="0 0 16 16" fill="none" xmlns="http://www.w3.org/2000/svg">
<path d="M14.2609 0H5.91304C4.95414 0 4.17391 0.780231 4.17391 1.73913V6.26087H1.73913C0.780231 6.26087 0 7.0411 0 8C0 8.9589 0.780231 9.73913 1.73913 9.73913H4.17391V14.2609C4.17391 15.2198 4.95414 16 5.91304 16H14.2609C15.2198 16 16 15.2198 16 14.2609V1.73913C16 0.780231 15.2198 0 14.2609 0ZM1.73913 9.04348C1.16389 9.04348 0.695652 8.57524 0.695652 8C0.695652 7.42476 1.16389 6.95652 1.73913 6.95652H10.087C10.6622 6.95652 11.1304 7.42476 11.1304 8C11.1304 8.57524 10.6622 9.04348 10.087 9.04348H1.73913ZM10.087 6.26087H7.48556C8.0591 5.40132 9.03023 4.86957 10.087 4.86957C11.8128 4.86957 13.2174 6.27412 13.2174 8C13.2174 9.72588 11.8128 11.1304 10.087 11.1304C9.03023 11.1304 8.0591 10.5987 7.48556 9.73913H10.087C11.0459 9.73913 11.8261 8.9589 11.8261 8C11.8261 7.0411 11.0459 6.26087 10.087 6.26087ZM15.3043 14.2609C15.3043 14.8361 14.8361 15.3043 14.2609 15.3043H5.91304C5.33781 15.3043 4.86957 14.8361 4.86957 14.2609V9.73913H6.6824C7.33254 11.0136 8.64385 11.8261 10.087 11.8261C12.1965 11.8261 13.913 10.1095 13.913 8C13.913 5.89046 12.1965 4.17391 10.087 4.17391C8.64385 4.17391 7.33254 4.98641 6.6824 6.26087H4.86957V1.73913C4.86957 1.16389 5.33781 0.695652 5.91304 0.695652H14.2609C14.8361 0.695652 15.3043 1.16389 15.3043 1.73913V14.2609Z" fill="#FDB713"/>
</svg>
