<svg width="23" height="23" viewBox="0 0 23 23" fill="none" xmlns="http://www.w3.org/2000/svg">
<path d="M16.2742 8.34687C16.4628 8.34687 16.6158 8.19403 16.6158 8.00539V5.096C16.6158 2.2861 14.3297 0 11.5198 0C8.70993 0 6.42383 2.2861 6.42383 5.096V17.904C6.42383 20.7139 8.70993 23 11.5198 23C14.3297 23 16.6158 20.7139 16.6158 17.904V9.37183C16.6158 9.18319 16.4628 9.03017 16.2742 9.03017C16.0855 9.03017 15.9327 9.18319 15.9327 9.37183V17.904C15.9327 20.3373 13.953 22.3169 11.5198 22.3169C9.08668 22.3169 7.10696 20.3373 7.10696 17.904V5.096C7.10696 2.66285 9.08668 0.683128 11.5198 0.683128C13.953 0.683128 15.9327 2.66267 15.9327 5.096V8.00539C15.9327 8.19403 16.0855 8.34687 16.2742 8.34687Z" fill="#FDB713"/>
<path d="M14.1355 4.21106C14.3241 4.21106 14.4771 4.05804 14.4771 3.86941C14.4771 3.68077 14.3241 3.52776 14.1355 3.52776H12.5444V3.02344C12.5444 2.45823 12.0847 1.99866 11.5197 1.99866C10.9546 1.99866 10.4949 2.45823 10.4949 3.02344V3.52776H8.90366C8.71503 3.52776 8.56201 3.68077 8.56201 3.86941C8.56201 4.05804 8.71503 4.21106 8.90366 4.21106H10.4949V6.26044H8.90366C8.71503 6.26044 8.56201 6.41328 8.56201 6.60192C8.56201 6.79056 8.71503 6.94357 8.90366 6.94357H10.4949V8.99296H8.90366C8.71503 8.99296 8.56201 9.14597 8.56201 9.33461C8.56201 9.52325 8.71503 9.67609 8.90366 9.67609H10.4949V11.7256H8.90366C8.71503 11.7256 8.56201 11.8785 8.56201 12.0671C8.56201 12.2558 8.71503 12.4088 8.90366 12.4088H10.4949V14.4582H8.90366C8.71503 14.4582 8.56201 14.611 8.56201 14.7998C8.56201 14.9884 8.71503 15.1413 8.90366 15.1413H10.4949V16.1233C9.78227 16.4996 9.3334 17.2344 9.3334 18.0547C9.3334 18.2434 9.48624 18.3964 9.67488 18.3964C9.86352 18.3964 10.0165 18.2434 10.0165 18.0547C10.0165 17.436 10.388 16.888 10.9631 16.6585C11.0929 16.6067 11.178 16.481 11.178 16.3412V10.7009H11.8613V16.341C11.8613 16.4809 11.9464 16.6065 12.0763 16.6583C12.6513 16.8878 13.0228 17.4358 13.0228 18.0545C13.0228 18.8833 12.3484 19.5577 11.5197 19.5577C11.0439 19.5577 10.6063 19.3396 10.3192 18.9593C10.2055 18.8089 9.99126 18.7789 9.84071 18.8926C9.69015 19.0063 9.66032 19.2206 9.77402 19.3711C10.1915 19.9239 10.8278 20.241 11.5197 20.241C12.7252 20.241 13.7059 19.2601 13.7059 18.0545C13.7059 17.2344 13.257 16.4995 12.5444 16.1231V15.1411H14.1355C14.3241 15.1411 14.4771 14.9883 14.4771 14.7996C14.4771 14.611 14.3241 14.458 14.1355 14.458H12.5444V13.3193H14.1355C14.3241 13.3193 14.4771 13.1665 14.4771 12.9778C14.4771 12.7892 14.3241 12.6362 14.1355 12.6362H12.5444V11.4977H14.1355C14.3241 11.4977 14.4771 11.3447 14.4771 11.1561C14.4771 10.9674 14.3241 10.8144 14.1355 10.8144H12.5444V10.3618C12.5444 10.361 12.5446 10.3601 12.5446 10.3592C12.5446 10.3583 12.5444 10.3575 12.5444 10.3566V9.67626H14.1355C14.3241 9.67626 14.4771 9.52342 14.4771 9.33479C14.4771 9.14597 14.3241 8.99313 14.1355 8.99313H12.5444V7.85447H14.1355C14.3241 7.85447 14.4771 7.70163 14.4771 7.51299C14.4771 7.32436 14.3241 7.17134 14.1355 7.17134H12.5444V6.03268H14.1355C14.3241 6.03268 14.4771 5.87984 14.4771 5.6912C14.4771 5.50256 14.3241 5.34955 14.1355 5.34955H12.5444V4.21088H14.1355V4.21106ZM11.178 10.0177V3.02344C11.178 2.83498 11.3312 2.68179 11.5197 2.68179C11.7079 2.68179 11.8613 2.83498 11.8613 3.02344V10.0177H11.178Z" fill="#FDB713"/>
</svg>
