<svg width="11" height="23" viewBox="0 0 11 23" fill="none" xmlns="http://www.w3.org/2000/svg">
<path d="M10.2742 8.34687C10.4628 8.34687 10.6158 8.19403 10.6158 8.00539V5.096C10.6158 2.2861 8.32973 0 5.51983 0C2.70993 0 0.423828 2.2861 0.423828 5.096V17.904C0.423828 20.7139 2.70993 23 5.51983 23C8.32973 23 10.6158 20.7139 10.6158 17.904V9.37183C10.6158 9.18319 10.4628 9.03017 10.2742 9.03017C10.0855 9.03017 9.9327 9.18319 9.9327 9.37183V17.904C9.9327 20.3373 7.95298 22.3169 5.51983 22.3169C3.08668 22.3169 1.10696 20.3373 1.10696 17.904V5.096C1.10696 2.66285 3.08668 0.683128 5.51983 0.683128C7.95298 0.683128 9.9327 2.66267 9.9327 5.096V8.00539C9.9327 8.19403 10.0855 8.34687 10.2742 8.34687Z" fill="#FDB713"/>
</svg>
