<svg width="33" height="33" viewBox="0 0 33 33" fill="none" xmlns="http://www.w3.org/2000/svg">
<path d="M29.2639 9.61072C29.6849 9.09458 29.938 8.43619 29.938 7.71967V7.13166C29.938 5.47928 28.5937 4.13505 26.9414 4.13505C25.289 4.13505 23.9447 5.47928 23.9447 7.13166V7.71967C23.9447 8.43645 24.198 9.09509 24.6194 9.6113C24.1059 9.75309 23.6173 9.97481 23.1719 10.2678V9.8004C23.1719 7.8556 21.5897 6.27334 19.6449 6.27334H19.2287C19.7279 5.66568 20.0281 4.88857 20.0281 4.04262V3.51984C20.028 1.5791 18.449 0 16.5082 0C14.5673 0 12.9883 1.5791 12.9883 3.51991V4.04269C12.9883 4.88863 13.2885 5.66574 13.7877 6.2734H13.3715C11.4267 6.2734 9.84449 7.85566 9.84449 9.80047V10.279C9.39473 9.98061 8.90044 9.7549 8.38063 9.61136C8.80196 9.09509 9.05526 8.43651 9.05526 7.71973V7.13173C9.05526 5.47934 7.71103 4.13511 6.05865 4.13511C4.40627 4.13511 3.06203 5.47934 3.06203 7.13173V7.71973C3.06203 8.43625 3.31508 9.09458 3.73615 9.61078C1.58496 10.2041 0 12.1768 0 14.514V19.7893C0 20.9102 0.911881 21.822 2.03278 21.822H2.57348V32.3554C2.57348 32.7113 2.86204 32.9999 3.21801 32.9999H6.04995C6.0513 32.9999 6.05259 32.9997 6.05394 32.9997C6.0553 32.9997 6.05658 32.9999 6.05794 32.9999H8.88987C9.24585 32.9999 9.5344 32.7113 9.5344 32.3554V21.822H10.0844C11.2016 21.822 12.111 20.9161 12.1169 19.8002C12.3259 19.88 12.5442 19.9403 12.7699 19.9792V32.3554C12.7699 32.7113 13.0584 32.9999 13.4144 32.9999H19.6019C19.9579 32.9999 20.2464 32.7113 20.2464 32.3554V26.1068C20.2464 25.7509 19.9579 25.4623 19.6019 25.4623C19.2459 25.4623 18.9574 25.7509 18.9574 26.1068V31.7109H17.1527V20.838C17.1527 20.4821 16.8641 20.1935 16.5082 20.1935C16.1522 20.1935 15.8636 20.4821 15.8636 20.838V31.7109H14.0589V18.0182H18.9574V21.1225C18.9574 21.4784 19.2459 21.767 19.6019 21.767C19.9579 21.767 20.2464 21.4784 20.2464 21.1225V19.9793C20.4662 19.9413 20.6792 19.8834 20.8832 19.8067C20.8926 20.9195 21.8005 21.822 22.9156 21.822H23.4656V32.3554C23.4656 32.7113 23.7542 32.9999 24.1101 32.9999H26.9421C26.9434 32.9999 26.9447 32.9997 26.9461 32.9997C26.9474 32.9997 26.9487 32.9999 26.9501 32.9999H29.782C30.138 32.9999 30.4265 32.7113 30.4265 32.3554V21.822H30.9672C32.0881 21.822 33 20.9102 33 19.7893V14.514C32.9999 12.1768 31.415 10.2041 29.2639 9.61072ZM4.35103 7.13166C4.35103 6.19013 5.11705 5.42411 6.05858 5.42411C7.00011 5.42411 7.76614 6.19013 7.76614 7.13166V7.71967C7.76614 8.66119 7.00011 9.42722 6.05858 9.42722C5.11705 9.42722 4.35103 8.66119 4.35103 7.71967V7.13166ZM8.24534 31.7109H6.70247V21.7851C6.70247 21.4292 6.41391 21.1406 6.05794 21.1406C5.70196 21.1406 5.41341 21.4292 5.41341 21.7851V22.4619C5.40864 22.4935 5.40535 22.5256 5.40535 22.5586V31.7109H3.86254V19.2711H8.24534V31.7109ZM10.828 19.7892C10.8281 20.1993 10.4945 20.533 10.0844 20.533H9.53434V17.1024C9.53434 16.7465 9.24578 16.4579 8.88981 16.4579C8.53384 16.4579 8.24528 16.7465 8.24528 17.1024V17.9819H3.86248V15.0508C3.86248 14.6949 3.57392 14.4063 3.21795 14.4063C2.86197 14.4063 2.57342 14.6949 2.57342 15.0508V20.5329H2.03272C1.62267 20.5329 1.289 20.1992 1.289 19.7892V14.514C1.289 12.4199 2.99268 10.7162 5.08676 10.7162H7.03028C8.09923 10.7162 9.12461 11.1705 9.84346 11.9627C9.84371 11.9631 9.84404 11.9633 9.84436 11.9636V16.5045C9.84436 17.4507 10.2195 18.3103 10.828 18.9443V19.7892ZM16.5082 1.28906C17.7382 1.28906 18.7389 2.28976 18.7389 3.51984V4.04262C18.7389 5.27264 17.7382 6.27334 16.5082 6.27334C15.2781 6.27334 14.2774 5.27264 14.2774 4.04262V3.51984C14.2774 2.28976 15.2781 1.28906 16.5082 1.28906ZM21.8828 16.5047C21.8828 17.5303 21.1891 18.3964 20.2464 18.6599V9.80047C20.2464 9.44449 19.9579 9.15594 19.6019 9.15594C19.2459 9.15594 18.9574 9.44456 18.9574 9.80047V16.7292H14.0589V9.80047C14.0589 9.44456 13.7704 9.15594 13.4144 9.15594C13.0584 9.15594 12.7699 9.44456 12.7699 9.80047V18.6598C11.8272 18.3963 11.1335 17.5303 11.1335 16.5046V9.80047C11.1335 8.56645 12.1374 7.56246 13.3714 7.56246H15.8421V9.32377C15.8421 9.67968 16.1307 9.9683 16.4866 9.9683C16.8426 9.9683 17.1312 9.67968 17.1312 9.32377V7.56246H19.6448C20.8788 7.56246 21.8828 8.56638 21.8828 9.80047V16.5047ZM25.2338 7.13166C25.2338 6.19013 25.9998 5.42411 26.9414 5.42411C27.8829 5.42411 28.6489 6.19013 28.6489 7.13166V7.71967C28.6489 8.66119 27.8829 9.42722 26.9414 9.42722C25.9998 9.42722 25.2338 8.66119 25.2338 7.71967V7.13166ZM29.1374 31.7109H27.5946V22.5586C27.5946 22.5256 27.5913 22.4935 27.5865 22.4619V21.7851C27.5865 21.4292 27.298 21.1406 26.942 21.1406C26.586 21.1406 26.2975 21.4292 26.2975 21.7851V31.7109H24.7546V19.2711H29.1374V31.7109ZM30.9672 20.533H30.4265V15.0509C30.4265 14.695 30.1379 14.4063 29.7819 14.4063C29.426 14.4063 29.1374 14.695 29.1374 15.0509V17.982H24.7546V17.1025C24.7546 16.7466 24.466 16.4579 24.1101 16.4579C23.7541 16.4579 23.4655 16.7466 23.4655 17.1025V20.5331H22.9155C22.5054 20.5331 22.1718 20.1994 22.1718 19.7893V18.9616C22.79 18.326 23.1718 17.4593 23.1718 16.5047V11.9467C23.89 11.1647 24.9081 10.7163 25.9695 10.7163H27.913C30.0071 10.7163 31.7108 12.42 31.7108 14.5141V19.7893H31.7109C31.7109 20.1993 31.3773 20.533 30.9672 20.533Z" fill="#FDB713"/>
</svg>
