<svg width="19" height="11" viewBox="0 0 19 11" fill="none" xmlns="http://www.w3.org/2000/svg">
<path d="M18.8992 9.93421C18.8762 9.8839 18.8548 9.84216 18.8349 9.80873C18.5052 9.20627 17.8753 8.46681 16.9454 7.59011L16.9257 7.57004L16.9159 7.56019L16.906 7.5501H16.896C16.474 7.14187 16.2067 6.86738 16.0948 6.72685C15.89 6.45915 15.8441 6.18818 15.9561 5.91362C16.0351 5.70618 16.3321 5.2681 16.8464 4.59877C17.1169 4.24405 17.3311 3.95975 17.4893 3.74556C18.6304 2.20629 19.125 1.22268 18.9733 0.794338L18.9143 0.69424C18.8747 0.633977 18.7725 0.578847 18.6078 0.52857C18.4428 0.478397 18.2318 0.4701 17.9745 0.503537L15.1256 0.523507C15.0794 0.506912 15.0135 0.508458 14.9276 0.52857C14.8419 0.548681 14.799 0.558772 14.799 0.558772L14.7494 0.58391L14.7101 0.614112C14.6771 0.634082 14.6408 0.669207 14.6012 0.719414C14.5618 0.769445 14.5288 0.828161 14.5025 0.895069C14.1923 1.70482 13.8397 2.45768 13.4439 3.15362C13.1998 3.56861 12.9757 3.92825 12.7711 4.23276C12.5667 4.53717 12.3952 4.76145 12.2568 4.90522C12.1182 5.04912 11.9931 5.16441 11.8808 5.2515C11.7686 5.33862 11.683 5.37544 11.6237 5.36197C11.5643 5.3485 11.5084 5.33514 11.4554 5.32178C11.3631 5.26152 11.2889 5.17956 11.2329 5.07584C11.1767 4.97213 11.1389 4.84158 11.1191 4.68431C11.0994 4.52694 11.0878 4.39158 11.0845 4.27777C11.0814 4.1641 11.0828 4.00331 11.0895 3.79588C11.0964 3.58833 11.0994 3.44791 11.0994 3.37428C11.0994 3.11994 11.1043 2.84391 11.1141 2.54611C11.1241 2.24831 11.1322 2.01236 11.1389 1.83853C11.1457 1.66453 11.1488 1.48043 11.1488 1.28636C11.1488 1.09228 11.1371 0.940072 11.1141 0.829602C11.0914 0.719273 11.0565 0.612178 11.0105 0.508353C10.9643 0.404634 10.8966 0.3244 10.8077 0.267443C10.7187 0.210555 10.608 0.165411 10.4763 0.131869C10.1268 0.0516004 9.68164 0.00817886 9.14074 0.0014283C7.91414 -0.0119322 7.12598 0.0684415 6.77644 0.242444C6.63795 0.315962 6.51263 0.416412 6.40057 0.543477C6.28183 0.690759 6.26527 0.771133 6.35099 0.784353C6.74675 0.84451 7.02692 0.988416 7.19181 1.21593L7.25124 1.33649C7.29746 1.42348 7.34361 1.57747 7.3898 1.79827C7.43591 2.01907 7.46568 2.26332 7.47877 2.53088C7.51169 3.01949 7.51169 3.43774 7.47877 3.78568C7.44575 4.13376 7.41457 4.40473 7.38481 4.59881C7.35504 4.79288 7.31055 4.95015 7.25124 5.07057C7.19181 5.19103 7.15228 5.26465 7.13246 5.29137C7.11268 5.31809 7.09618 5.33493 7.08309 5.34154C6.99736 5.37487 6.90821 5.39186 6.81594 5.39186C6.72353 5.39186 6.61148 5.34495 6.47961 5.25122C6.34777 5.15748 6.21094 5.02873 6.06912 4.86475C5.9273 4.70073 5.76737 4.47153 5.58924 4.17711C5.41124 3.88268 5.22657 3.53471 5.03531 3.1332L4.87706 2.84201C4.77814 2.65468 4.64301 2.38191 4.47153 2.02396C4.29995 1.66586 4.1483 1.31947 4.01646 0.984865C3.96376 0.844334 3.88458 0.737345 3.77908 0.663722L3.72956 0.63352C3.69665 0.606799 3.64381 0.578425 3.57132 0.548188C3.49873 0.517987 3.42299 0.496328 3.34378 0.483003L0.633242 0.502974C0.356259 0.502974 0.168324 0.566647 0.0693669 0.693817L0.0297633 0.753975C0.00997886 0.787481 0 0.840994 0 0.914652C0 0.988276 0.0197845 1.07863 0.0593881 1.18562C0.455078 2.1293 0.885381 3.03939 1.3503 3.91605C1.81522 4.79271 2.21922 5.49888 2.56207 6.03393C2.90499 6.56937 3.25453 7.07471 3.61068 7.54971C3.96684 8.02489 4.20259 8.3294 4.31794 8.46318C4.43342 8.59721 4.52413 8.69741 4.59007 8.76432L4.83743 9.0052C4.9957 9.16584 5.22813 9.35823 5.5348 9.58237C5.84155 9.80665 6.18114 10.0274 6.55375 10.2451C6.92644 10.4624 7.36 10.6398 7.85468 10.7769C8.34929 10.9142 8.8307 10.9693 9.29898 10.9427H10.4366C10.6674 10.9225 10.8422 10.8489 10.961 10.7218L11.0003 10.6715C11.0268 10.6316 11.0516 10.5695 11.0745 10.486C11.0976 10.4024 11.1091 10.3102 11.1091 10.21C11.1023 9.92229 11.1239 9.66299 11.1733 9.43214C11.2226 9.20135 11.2788 9.02735 11.3416 8.91016C11.4045 8.79308 11.4753 8.69429 11.5542 8.61419C11.6333 8.53392 11.6896 8.4853 11.7227 8.46856C11.7555 8.45172 11.7818 8.4403 11.8016 8.43344C11.9598 8.37993 12.1461 8.43175 12.3607 8.58916C12.575 8.74643 12.7761 8.94061 12.9642 9.17139C13.1521 9.40239 13.378 9.66155 13.6417 9.94926C13.9056 10.2371 14.1364 10.451 14.3342 10.5918L14.532 10.7122C14.664 10.7926 14.8355 10.8662 15.0466 10.9331C15.2573 11 15.4419 11.0167 15.6004 10.9833L18.1328 10.9432C18.3833 10.9432 18.5782 10.9011 18.7164 10.8176C18.855 10.734 18.9372 10.6418 18.9638 10.5416C18.9903 10.4412 18.9917 10.3274 18.9688 10.2001C18.9454 10.0732 18.9222 9.98438 18.8992 9.93421Z" fill="#FDB713"/>
</svg>
