<svg width="16" height="16" viewBox="0 0 16 16" fill="none" xmlns="http://www.w3.org/2000/svg">
<path d="M11.55 1.34835C11.3781 1.2774 11.1814 1.35918 11.1105 1.53098C11.0396 1.70279 11.1214 1.89955 11.2932 1.97045C13.7436 2.98209 15.327 5.34882 15.327 7.99997C15.327 11.5952 12.4021 14.5202 8.80676 14.5202C8.62087 14.5202 8.47021 14.6709 8.47021 14.8567C8.47021 15.0425 8.62087 15.1933 8.80676 15.1933C12.7732 15.1933 16.0001 11.9664 16.0001 7.99997C16.0001 5.07532 14.2533 2.46438 11.55 1.34835Z" fill="#FDB713"/>
<path d="M8.80676 12.6725C11.3832 12.6725 13.4793 10.5764 13.4793 8C13.4793 5.42361 11.3832 3.32751 8.80676 3.32751C8.62093 3.32751 8.47021 3.47823 8.47021 3.66406C8.47021 3.84994 8.62093 4.0006 8.80676 4.0006C11.0121 4.0006 12.8062 5.7947 12.8062 8C12.8062 10.2053 11.0121 11.9994 8.80676 11.9994C8.62093 11.9994 8.47021 12.1501 8.47021 12.3359C8.47021 12.5218 8.62093 12.6725 8.80676 12.6725Z" fill="#FDB713"/>
<path d="M9.90208 9.17656C9.76612 9.30321 9.75855 9.51619 9.88526 9.65215C9.95156 9.72333 10.0414 9.75934 10.1316 9.75934C10.2137 9.75934 10.2961 9.72944 10.3609 9.66903C10.8226 9.23899 11.0874 8.63064 11.0874 7.99996C11.0874 6.74247 10.0643 5.71939 8.80676 5.71939C8.62093 5.71939 8.47021 5.87011 8.47021 6.05593C8.47021 6.24176 8.62093 6.39247 8.80676 6.39247C9.69315 6.39247 10.4143 7.11357 10.4143 7.99996C10.4142 8.45104 10.2323 8.86885 9.90208 9.17656Z" fill="#FDB713"/>
<path d="M7.33603 0.832372C7.21033 0.780321 7.06562 0.808983 6.96931 0.905065L3.41275 4.45625H0.336541C0.150714 4.45625 0 4.60696 0 4.79279V11.2071C0 11.393 0.150714 11.5437 0.336541 11.5437H3.55197C3.73779 11.5437 3.88851 11.393 3.88851 11.2071C3.88851 11.0213 3.73779 10.8706 3.55197 10.8706H0.673082V5.12933H3.55197C3.64115 5.12933 3.72663 5.09394 3.78973 5.03095L6.87054 1.95485V14.0451L5.20876 12.3858C5.07717 12.2545 4.86408 12.2546 4.73283 12.3862C4.60152 12.5177 4.60169 12.7308 4.73322 12.8621L6.96937 15.0949C7.03371 15.1591 7.11975 15.1933 7.20725 15.1933C7.25061 15.1933 7.29441 15.1849 7.33609 15.1676C7.46179 15.1155 7.54373 14.9927 7.54373 14.8567V1.14322C7.54362 1.00715 7.46167 0.88448 7.33603 0.832372Z" fill="#FDB713"/>
</svg>
